<?xml version="1.0" encoding="UTF-8" standalone="no"?>
<svg
   xmlns:dc="http://purl.org/dc/elements/1.1/"
   xmlns:cc="http://creativecommons.org/ns#"
   xmlns:rdf="http://www.w3.org/1999/02/22-rdf-syntax-ns#"
   xmlns:svg="http://www.w3.org/2000/svg"
   xmlns="http://www.w3.org/2000/svg"
   viewBox="0 0 2720 2720"
   height="2720"
   width="2720"
   xml:space="preserve"
   id="svg2"
   version="1.1"><metadata
     id="metadata8"><rdf:RDF><cc:Work
         rdf:about=""><dc:format>image/svg+xml</dc:format><dc:type
           rdf:resource="http://purl.org/dc/dcmitype/StillImage" /></cc:Work></rdf:RDF></metadata><defs
     id="defs6" /><g
     transform="matrix(1.3333333,0,0,-1.3333333,0,2720)"
     id="g10"><g
       transform="scale(0.1)"
       id="g12"><g
         transform="scale(1.25153)"
         id="g14"><path
           id="path16"
           style="fill:#ffffff;fill-opacity:1;fill-rule:evenodd;stroke:none"
           d="M 0,16300 H 16300 V 0 H 0 v 16300" /></g><g
         transform="scale(1.04193)"
         id="g18"><path
           id="path20"
           style="fill:#000000;fill-opacity:1;fill-rule:nonzero;stroke:none"
           d="m 10120.5,6064.4 c 2.5,116.23 35.9,237.25 95.8,358.38 111.8,227.07 319.1,462.98 583.8,668.66 l 4487.8,3489.96 -6631.31,3265.8 -4544.43,-3534.1 c -161.61,-125.6 -304.71,-303.3 -395.58,-487.99 -56.31,-114.6 -91.95,-229.67 -97.66,-333.03 -4.89,-87.34 11.97,-165.18 57.13,-223.05 24.75,-32.16 59.31,-60.18 104.46,-82.16 z m 266.9,5882.5 -1790.39,881.7 -2255.35,-1754.2 1790.14,-881.5 z m -1727,1226.4 2118.2,-1043.1 c 83.5,-41.3 117.8,-142.5 76.5,-226.1 -11.7,-23.6 -28,-43.2 -47.7,-58.5 l 0.3,-0.2 -2551.58,-1984.11 c -55.77,-43.28 -130.05,-46.26 -187.45,-13.34 L 5950.44,10891 c -83.52,41.3 -117.8,142.6 -76.72,226.1 11.7,23.6 28.29,43.2 47.88,58.5 l -0.27,0.2 2551.62,1984.1 c 55.77,43.3 129.77,46.3 187.45,13.4 z m 2371.5,-1712.6 c -83.5,41.3 -117.8,142.3 -76.4,225.8 41.1,83.5 142.2,117.8 225.7,76.7 l 2749.7,-1354.3 c 83.5,-41.1 117.8,-142.3 76.5,-225.8 -41,-83.5 -142.3,-117.8 -225.8,-76.4 z m -806.1,-627.1 c -83.5,41.3 -117.8,142.5 -76.7,226.1 41.4,83.2 142.3,117.5 225.8,76.4 l 2749.7,-1353.99 c 83.5,-41.36 117.8,-142.33 76.4,-225.83 -41,-83.5 -142.3,-117.76 -225.8,-76.68 z m -806.37,-626.8 c -83.52,41.1 -117.8,142.3 -76.44,225.8 41.07,83.5 142.28,117.8 225.8,76.7 L 12318.2,9155.01 c 83.5,-41.08 117.8,-142.33 76.7,-225.83 -41.3,-83.5 -142.3,-117.77 -225.8,-76.4 z m -4275.36,57.4 c -83.53,41.1 -117.8,142.3 -76.45,225.8 41.08,83.5 142.29,117.8 225.8,76.7 L 10705.7,7901.09 c 83.6,-41.08 117.8,-142.24 76.8,-225.83 -41.4,-83.5 -142.4,-117.77 -225.9,-76.4 z m -806.11,-627.11 c -83.52,41.37 -117.8,142.53 -76.71,226.12 41.34,83.21 142.28,117.76 225.8,76.4 L 9899.59,7274.27 c 83.49,-41.36 117.81,-142.52 76.49,-225.83 -41.08,-83.5 -142.33,-117.76 -225.83,-76.68 z m 11708.44,-72.94 c 75.2,-36.95 132,-82.92 172.5,-135.23 52.3,-67.18 77.3,-142.81 79.2,-222.18 1.9,-71.88 -16,-143.39 -49.8,-212.01 -45.7,-93 -122.1,-182.26 -216.8,-255.97 L 12193,5754.31 c -245.4,-190.99 -542.7,-326.51 -852.1,-372.19 -282.6,-41.66 -575.3,-8.74 -849,123.8 -2293.45,1097.96 -4577.92,2254.28 -6860.46,3378.44 -93.59,45.87 -167.05,106.34 -222.28,177.36 -98.48,126.69 -136.3,282.07 -127.05,448.88 8.44,150.2 56.31,310.09 131.95,463.56 112.91,229.34 290.28,449.94 490.79,605.84 l 4627.68,3598.5 0.27,-0.2 c 49.24,38.3 118.08,47.6 177.93,18.2 l 6959.17,-3427.1 c 25.8,-10.9 49.5,-28.3 68.1,-52.2 57.1,-73.8 43.7,-179.9 -30,-237 l -590,-459 z m -7433.35,15.55 c -83.23,41.37 -117.52,142.53 -76.43,226.02 41.08,83.31 142.28,117.86 225.8,76.5 L 11512.1,8528.19 c 83.5,-41.36 117.8,-142.33 76.5,-225.83 -41.1,-83.5 -142.4,-117.76 -225.9,-76.68 z M 11605.5,6267.97 c -73.6,-57.39 -179.6,-44.15 -237.1,29.65 -57.1,73.71 -43.8,179.77 29.7,236.97 l 3661.6,2847.3 c 77.8,60.37 169.8,116.14 269.3,159.71 l -506.8,249.44 -3814.8,-2966.22 c -225.8,-175.73 -399.6,-370.28 -488.9,-551.19 -39.1,-79.66 -60.6,-153.65 -61.5,-218.73 -0.5,-53.55 14.2,-102.5 46.6,-144.44 28.3,-36.47 70.7,-69.39 128.9,-98.18 210,-103.47 437.8,-128.71 659.5,-96.08 250,37.05 492.2,148 693.7,304.73 L 15824,9005.67 c 55.9,43.48 98.9,91.66 121.8,138.21 10.3,20.92 16.1,39.73 15.5,54.89 0,7.1 -3,14.98 -8.9,22.65 -10.7,13.53 -28.6,27.17 -55.3,40.22 -78.6,38.87 -172.8,42.42 -268,23.99 l -5.1,-1.15 c -129.5,-26.39 -257.9,-92.52 -356.7,-169.21 l -3661.8,-2847.3" /></g></g></g></svg>